# This file uses centimeters as units for non-parametric coordinates.

mtllib Torch.mtl
g default
v 5.487679 -9.784609 -1.783077
v 4.668108 -9.784609 -3.391613
v 3.391580 -9.784609 -4.668153
v 1.783032 -9.784609 -5.487745
v -0.000066 -9.784609 -5.770155
v -1.783120 -9.784609 -5.487745
v -3.391668 -9.784609 -4.668152
v -4.668196 -9.784609 -3.391611
v -5.487767 -9.784609 -1.783076
v -5.770219 -9.784609 -0.000001
v -5.487767 -9.784609 1.783075
v -4.668196 -9.784609 3.391611
v -3.391668 -9.784609 4.668150
v -1.783120 -9.784609 5.487742
v -0.000066 -9.784609 5.770152
v 1.783032 -9.784609 5.487741
v 3.391580 -9.784609 4.668150
v 4.668108 -9.784609 3.391610
v 5.487679 -9.784609 1.783074
v 5.770086 -9.784609 -0.000001
v 8.255398 124.967995 -2.682362
v 5.375517 118.978554 -3.905569
v 3.905541 118.978554 -5.375552
v 2.682329 124.967995 -8.255460
v -0.000066 124.967995 -8.680304
v -2.682395 124.967995 -8.255460
v -3.905608 118.978554 -5.375553
v -5.375584 118.978554 -3.905569
v -8.255464 124.967995 -2.682361
v -8.680367 124.967995 0.000000
v -8.255464 124.967995 2.682361
v -5.375584 118.978554 3.905566
v -3.905608 118.978554 5.375551
v -2.682395 124.967995 8.255457
v -0.000066 124.967995 8.680301
v 2.682329 124.967995 8.255456
v 3.905541 118.978554 5.375550
v 5.375517 118.978554 3.905567
v 8.255398 124.967995 2.682360
v 8.680233 124.967995 0.000000
v -0.000066 -9.784609 -0.000001
v -0.000066 124.967995 0.000000
v 3.473323 134.274887 -10.689876
v -0.000066 131.228683 -8.680304
v -0.000066 125.370247 0.000000
v -3.473389 134.274887 -10.689876
v -10.689869 134.274887 -3.473353
v -8.680367 131.228683 0.000000
v -0.000066 125.370247 0.000000
v -10.689869 134.274887 3.473355
v -3.473389 134.274887 10.689873
v -0.000066 131.228683 8.680301
v -0.000066 125.370247 0.000000
v 3.473323 134.274887 10.689872
v 10.689803 134.274887 3.473355
v 8.680233 131.228683 0.000000
v -0.000066 125.370247 0.000000
v 10.689803 134.274887 -3.473354
v 5.487679 57.040127 -1.783077
v 5.770086 57.040127 -0.000001
v 5.487679 57.040127 1.783074
v 4.668108 57.040142 3.391610
v 3.391580 57.040142 4.668150
v 1.783032 57.040127 5.487741
v -0.000066 57.040127 5.770152
v -1.783120 57.040127 5.487742
v -3.391668 57.040142 4.668150
v -4.668196 57.040142 3.391611
v -5.487767 57.040127 1.783075
v -5.770219 57.040127 -0.000001
v -5.487767 57.040127 -1.783076
v -4.668196 57.040142 -3.391611
v -3.391668 57.040142 -4.668152
v -1.783120 57.040127 -5.487745
v -0.000066 57.040127 -5.770155
v 1.783032 57.040127 -5.487745
v 3.391580 57.040142 -4.668153
v 4.668108 57.040142 -3.391613
v 5.487679 105.354919 -1.783077
v 5.770086 105.354919 -0.000001
v 5.487679 105.354919 1.783074
v 4.668107 105.354950 3.391610
v 3.391580 105.354950 4.668150
v 1.783032 105.354919 5.487741
v -0.000066 105.354919 5.770152
v -1.783120 105.354919 5.487742
v -3.391668 105.354950 4.668150
v -4.668196 105.354950 3.391610
v -5.487767 105.354919 1.783075
v -5.770219 105.354919 -0.000001
v -5.487767 105.354919 -1.783076
v -4.668196 105.354950 -3.391611
v -3.391668 105.354950 -4.668152
v -1.783120 105.354919 -5.487746
v -0.000066 105.354919 -5.770155
v 1.783032 105.354919 -5.487746
v 3.391580 105.354950 -4.668153
v 4.668107 105.354950 -3.391613
vt 0.634117 0.123390
vt 0.608753 0.073610
vt 0.569247 0.034104
vt 0.519467 0.008740
vt 0.464286 0.000000
vt 0.409104 0.008740
vt 0.359324 0.034104
vt 0.319818 0.073610
vt 0.294454 0.123390
vt 0.285714 0.178572
vt 0.294454 0.233753
vt 0.319818 0.283533
vt 0.359324 0.323039
vt 0.409104 0.348403
vt 0.464286 0.357143
vt 0.519467 0.348403
vt 0.569247 0.323039
vt 0.608753 0.283533
vt 0.634117 0.233753
vt 0.642857 0.178572
vt 0.000000 0.000000
vt 0.014286 0.000000
vt 0.028571 0.000000
vt 0.042857 0.000000
vt 0.057143 0.000000
vt 0.071429 0.000000
vt 0.085714 0.000000
vt 0.100000 0.000000
vt 0.114286 0.000000
vt 0.128571 0.000000
vt 0.142857 0.000000
vt 0.157143 0.000000
vt 0.171428 0.000000
vt 0.185714 0.000000
vt 0.200000 0.000000
vt 0.214286 0.000000
vt 0.228571 0.000000
vt 0.242857 0.000000
vt 0.257143 0.000000
vt 0.271428 0.000000
vt 0.285714 0.000000
vt 0.000000 0.428572
vt 0.014286 0.428572
vt 0.028571 0.428572
vt 0.042857 0.428572
vt 0.057143 0.428572
vt 0.071429 0.428572
vt 0.085714 0.428572
vt 0.100000 0.428572
vt 0.114286 0.428572
vt 0.128571 0.428572
vt 0.142857 0.428572
vt 0.157143 0.428572
vt 0.171428 0.428572
vt 0.185714 0.428572
vt 0.200000 0.428572
vt 0.214286 0.428572
vt 0.228571 0.428572
vt 0.242857 0.428572
vt 0.257143 0.428572
vt 0.271428 0.428572
vt 0.285714 0.428572
vt 0.991260 0.123390
vt 0.965896 0.073610
vt 0.926390 0.034104
vt 0.876610 0.008740
vt 0.821428 0.000000
vt 0.766247 0.008740
vt 0.716467 0.034104
vt 0.676961 0.073610
vt 0.651597 0.123390
vt 0.642857 0.178572
vt 0.651597 0.233753
vt 0.676961 0.283533
vt 0.716467 0.323039
vt 0.766247 0.348403
vt 0.821428 0.357143
vt 0.876610 0.348403
vt 0.926390 0.323039
vt 0.965896 0.283533
vt 0.991260 0.233753
vt 1.000000 0.178572
vt 0.464286 0.178572
vt 0.821428 0.178572
vt 0.876610 0.348403
vt 0.821428 0.357143
vt 0.821428 0.178572
vt 0.766247 0.348403
vt 0.651597 0.233753
vt 0.642857 0.178572
vt 0.651597 0.123390
vt 0.766247 0.008740
vt 0.821428 0.000000
vt 0.876610 0.008740
vt 0.991260 0.123390
vt 1.000000 0.178572
vt 0.991260 0.233753
vt 0.285714 0.214286
vt 0.000000 0.214286
vt 0.271428 0.214286
vt 0.257143 0.214286
vt 0.242857 0.214286
vt 0.228571 0.214286
vt 0.214286 0.214286
vt 0.200000 0.214286
vt 0.185714 0.214286
vt 0.171428 0.214286
vt 0.157143 0.214286
vt 0.142857 0.214286
vt 0.128571 0.214286
vt 0.114286 0.214286
vt 0.100000 0.214286
vt 0.085714 0.214286
vt 0.071429 0.214286
vt 0.057143 0.214286
vt 0.042857 0.214286
vt 0.028571 0.214286
vt 0.014286 0.214286
vt 0.285714 0.407458
vt 0.000000 0.407458
vt 0.271428 0.407458
vt 0.257143 0.407458
vt 0.242857 0.407458
vt 0.228571 0.407458
vt 0.214285 0.407458
vt 0.200000 0.407458
vt 0.185714 0.407458
vt 0.171428 0.407458
vt 0.157143 0.407458
vt 0.142857 0.407458
vt 0.128571 0.407458
vt 0.114286 0.407458
vt 0.100000 0.407458
vt 0.085714 0.407458
vt 0.071429 0.407458
vt 0.057143 0.407458
vt 0.042857 0.407458
vt 0.028571 0.407458
vt 0.014286 0.407458
vn 0.951059 0.000000 -0.309011
vn 0.809021 0.000000 -0.587780
vn 0.809021 0.000000 -0.587780
vn 0.951058 0.000000 -0.309011
vn 0.587786 0.000000 -0.809017
vn 0.587786 0.000000 -0.809017
vn 0.309014 0.000000 -0.951057
vn 0.309014 -0.000000 -0.951057
vn -0.000000 0.000000 -1.000000
vn 0.000000 -0.000000 -1.000000
vn -0.309018 0.000000 -0.951056
vn -0.309018 -0.000000 -0.951056
vn -0.587786 0.000000 -0.809016
vn -0.587786 0.000000 -0.809016
vn -0.809021 0.000000 -0.587780
vn -0.809021 0.000000 -0.587780
vn -0.951055 0.000000 -0.309023
vn -0.951055 0.000000 -0.309023
vn -1.000000 0.000000 -0.000000
vn -1.000000 0.000000 -0.000000
vn -0.951055 0.000000 0.309023
vn -0.951055 0.000000 0.309023
vn -0.809021 0.000000 0.587780
vn -0.809021 0.000000 0.587780
vn -0.587786 0.000000 0.809017
vn -0.587786 -0.000000 0.809017
vn -0.309018 0.000000 0.951056
vn -0.309018 -0.000000 0.951056
vn 0.000000 0.000000 1.000000
vn 0.000000 -0.000000 1.000000
vn 0.309014 0.000000 0.951057
vn 0.309014 0.000000 0.951057
vn 0.587786 0.000000 0.809017
vn 0.587786 0.000000 0.809017
vn 0.809021 0.000000 0.587780
vn 0.809021 0.000000 0.587780
vn 0.951058 0.000000 0.309011
vn 0.951058 0.000000 0.309011
vn 1.000000 0.000000 -0.000000
vn 1.000000 0.000000 -0.000000
vn 0.000000 -1.000000 0.000000
vn 0.000000 -1.000000 0.000000
vn 0.000000 -1.000000 0.000000
vn 0.000000 -1.000000 0.000000
vn 0.000000 -1.000000 0.000000
vn 0.000000 -1.000000 0.000000
vn 0.000000 -1.000000 0.000000
vn 0.000000 -1.000000 0.000000
vn 0.000000 -1.000000 0.000000
vn 0.000000 -1.000000 0.000000
vn 0.000000 -1.000000 0.000000
vn 0.000000 -1.000000 0.000000
vn 0.000000 -1.000000 -0.000000
vn 0.000000 -1.000000 -0.000000
vn 0.000000 -1.000000 0.000000
vn 0.000000 -1.000000 0.000000
vn 0.000000 -1.000000 0.000000
vn 0.000000 -1.000000 0.000000
vn 0.000000 -1.000000 0.000000
vn 0.000000 -1.000000 0.000000
vn 0.000000 -1.000000 0.000000
vn -0.292318 0.324290 -0.899659
vn -0.068940 0.500762 -0.862835
vn 0.557612 0.614936 -0.557604
vn 0.862835 0.500763 0.068943
vn 0.899658 0.324292 0.292320
vn -0.374011 0.768727 0.518821
vn 0.000001 0.828883 0.559422
vn -0.000003 0.828883 0.559422
vn 0.374017 0.768724 0.518820
vn -0.899661 0.324290 0.292313
vn -0.862837 0.500759 0.068939
vn -0.557610 0.614932 -0.557611
vn 0.068938 0.500762 -0.862835
vn 0.292318 0.324289 -0.899659
vn 0.518819 0.768722 0.374023
vn 0.559423 0.828883 0.000000
vn 0.559423 0.828883 0.000000
vn 0.518819 0.768722 -0.374023
vn 0.292319 0.324289 0.899659
vn 0.068938 0.500761 0.862836
vn -0.557611 0.614932 0.557611
vn -0.862837 0.500759 -0.068938
vn -0.899661 0.324290 -0.292313
vn 0.374017 0.768724 -0.518820
vn 0.000001 0.828883 -0.559422
vn -0.000003 0.828883 -0.559422
vn -0.374011 0.768726 -0.518821
vn 0.899657 0.324292 -0.292321
vn 0.862835 0.500763 -0.068944
vn 0.557612 0.614937 0.557604
vn -0.068939 0.500762 0.862835
vn -0.292318 0.324290 0.899659
vn -0.518822 0.768725 -0.374013
vn -0.559423 0.828883 0.000000
vn -0.559423 0.828883 0.000000
vn -0.518822 0.768725 0.374013
vn -0.179758 -0.143061 -0.973253
vn -0.179758 -0.143061 -0.973253
vn -0.179758 -0.143061 -0.973253
vn -0.179758 -0.143061 -0.973253
vn 0.951055 0.000000 0.309020
vn 0.951055 0.000000 0.309020
vn 0.951055 0.000000 0.309020
vn 0.951055 0.000000 0.309020
vn 0.179761 -0.143061 -0.973252
vn 0.179761 -0.143061 -0.973252
vn 0.179761 -0.143061 -0.973252
vn 0.179761 -0.143061 -0.973252
vn -0.951057 -0.000001 0.309014
vn -0.951057 -0.000001 0.309014
vn -0.951057 -0.000001 0.309014
vn -0.951057 -0.000001 0.309014
vn -0.973256 -0.143062 0.179740
vn -0.973256 -0.143062 0.179740
vn -0.973256 -0.143062 0.179740
vn -0.973256 -0.143062 0.179740
vn 0.309019 0.000000 -0.951056
vn 0.309019 0.000000 -0.951056
vn 0.309019 0.000000 -0.951056
vn 0.309019 0.000000 -0.951056
vn -0.973256 -0.143062 -0.179740
vn -0.973256 -0.143062 -0.179740
vn -0.973256 -0.143062 -0.179740
vn -0.973256 -0.143062 -0.179740
vn 0.309019 -0.000000 0.951056
vn 0.309019 -0.000000 0.951056
vn 0.309019 -0.000000 0.951056
vn 0.309019 -0.000000 0.951056
vn 0.179761 -0.143061 0.973252
vn 0.179761 -0.143061 0.973252
vn 0.179761 -0.143061 0.973252
vn 0.179761 -0.143061 0.973252
vn -0.951057 -0.000001 -0.309014
vn -0.951058 -0.000001 -0.309014
vn -0.951057 -0.000001 -0.309014
vn -0.951058 -0.000001 -0.309014
vn -0.179757 -0.143061 0.973253
vn -0.179757 -0.143061 0.973253
vn -0.179757 -0.143061 0.973253
vn -0.179757 -0.143061 0.973253
vn 0.951055 0.000001 -0.309021
vn 0.951055 0.000001 -0.309021
vn 0.951055 0.000001 -0.309021
vn 0.951055 0.000001 -0.309021
vn 0.973252 -0.143060 -0.179759
vn 0.973253 -0.143060 -0.179759
vn 0.973253 -0.143060 -0.179759
vn 0.973252 -0.143060 -0.179759
vn -0.309017 -0.000001 0.951057
vn -0.309017 -0.000001 0.951057
vn -0.309016 -0.000001 0.951057
vn -0.309017 -0.000001 0.951057
vn 0.973252 -0.143060 0.179760
vn 0.973252 -0.143060 0.179760
vn 0.973252 -0.143060 0.179760
vn 0.973252 -0.143060 0.179760
vn -0.309017 -0.000001 -0.951057
vn -0.309017 -0.000001 -0.951057
vn -0.309017 -0.000001 -0.951057
vn -0.309017 -0.000001 -0.951057
vn 0.937708 -0.041679 -0.344915
vn 0.998728 -0.050422 -0.000000
vn 0.937708 -0.041679 0.344915
vn 0.783605 -0.023331 0.620822
vn 0.620827 -0.023331 0.783600
vn 0.344918 -0.041679 0.937707
vn 0.000000 -0.050422 0.998728
vn -0.344922 -0.041678 0.937706
vn -0.620827 -0.023331 0.783600
vn -0.783604 -0.023331 0.620822
vn -0.937704 -0.041678 0.344927
vn -0.998728 -0.050422 -0.000000
vn -0.937704 -0.041678 -0.344927
vn -0.783604 -0.023331 -0.620822
vn -0.620828 -0.023331 -0.783600
vn -0.344922 -0.041678 -0.937705
vn 0.000000 -0.050422 -0.998728
vn 0.344918 -0.041679 -0.937707
vn 0.620827 -0.023331 -0.783600
vn 0.783605 -0.023331 -0.620822
vn 0.957086 -0.141831 -0.252724
vn 0.989170 -0.146771 -0.000000
vn 0.957087 -0.141832 0.252724
vn 0.705194 -0.091585 0.703074
vn 0.703078 -0.091585 0.705191
vn 0.252726 -0.141831 0.957086
vn 0.000000 -0.146771 0.989170
vn -0.252731 -0.141831 0.957085
vn -0.703079 -0.091584 0.705190
vn -0.705193 -0.091584 0.703075
vn -0.957081 -0.141831 0.252744
vn -0.989171 -0.146771 -0.000000
vn -0.957081 -0.141831 -0.252744
vn -0.705194 -0.091584 -0.703075
vn -0.703079 -0.091584 -0.705190
vn -0.252731 -0.141831 -0.957085
vn 0.000000 -0.146771 -0.989170
vn 0.252726 -0.141831 -0.957086
vn 0.703078 -0.091585 -0.705190
vn 0.705194 -0.091585 -0.703074
s 1
g pCylinder5
usemtl initialShadingGroup
f 1/21/1 2/22/2 78/118/3 59/99/4
f 2/22/2 3/23/5 77/117/6 78/118/3
f 3/23/5 4/24/7 76/116/8 77/117/6
f 4/24/7 5/25/9 75/115/10 76/116/8
f 5/25/9 6/26/11 74/114/12 75/115/10
f 6/26/11 7/27/13 73/113/14 74/114/12
f 7/27/13 8/28/15 72/112/16 73/113/14
f 8/28/15 9/29/17 71/111/18 72/112/16
f 9/29/17 10/30/19 70/110/20 71/111/18
f 10/30/19 11/31/21 69/109/22 70/110/20
f 11/31/21 12/32/23 68/108/24 69/109/22
f 12/32/23 13/33/25 67/107/26 68/108/24
f 13/33/25 14/34/27 66/106/28 67/107/26
f 14/34/27 15/35/29 65/105/30 66/106/28
f 15/35/29 16/36/31 64/104/32 65/105/30
f 16/36/31 17/37/33 63/103/34 64/104/32
f 17/37/33 18/38/35 62/102/36 63/103/34
f 18/38/35 19/39/37 61/101/38 62/102/36
f 19/39/37 20/40/39 60/100/40 61/101/38
f 20/40/39 1/41/1 59/98/4 60/100/40
s 2
f 2/2/41 1/1/42 41/83/43
f 3/3/44 2/2/41 41/83/43
f 4/4/45 3/3/44 41/83/43
f 5/5/46 4/4/45 41/83/43
f 6/6/47 5/5/46 41/83/43
f 7/7/48 6/6/47 41/83/43
f 8/8/49 7/7/48 41/83/43
f 9/9/50 8/8/49 41/83/43
f 10/10/51 9/9/50 41/83/43
f 11/11/52 10/10/51 41/83/43
f 12/12/53 11/11/52 41/83/43
f 13/13/54 12/12/53 41/83/43
f 14/14/55 13/13/54 41/83/43
f 15/15/56 14/14/55 41/83/43
f 16/16/57 15/15/56 41/83/43
f 17/17/58 16/16/57 41/83/43
f 18/18/59 17/17/58 41/83/43
f 19/19/60 18/18/59 41/83/43
f 20/20/61 19/19/60 41/83/43
f 1/1/42 20/20/61 41/83/43
s 3
f 21/81/62 22/80/63 42/84/64
f 22/80/63 23/79/65 42/84/64
f 23/79/65 24/78/66 42/84/64
s 4
f 43/85/67 44/86/68 45/87/69
f 44/86/68 46/88/70 45/87/69
s 5
f 26/76/71 27/75/72 42/84/73
f 27/75/72 28/74/74 42/84/73
f 28/74/74 29/73/75 42/84/73
s 6
f 47/89/76 48/90/77 49/87/78
f 48/90/77 50/91/79 49/87/78
s 7
f 31/71/80 32/70/81 42/84/82
f 32/70/81 33/69/83 42/84/82
f 33/69/83 34/68/84 42/84/82
s 8
f 51/92/85 52/93/86 53/87/87
f 52/93/86 54/94/88 53/87/87
s 9
f 36/66/89 37/65/90 42/84/91
f 37/65/90 38/64/92 42/84/91
f 38/64/92 39/63/93 42/84/91
s 10
f 55/95/94 56/96/95 57/87/96
f 56/96/95 58/97/97 57/87/96
s off
f 24/78/98 25/77/99 44/86/100 43/85/101
f 42/84/102 24/78/103 43/85/104 45/87/105
f 25/77/106 26/76/107 46/88/108 44/86/109
f 26/76/110 42/84/111 45/87/112 46/88/113
f 29/73/114 30/72/115 48/90/116 47/89/117
f 42/84/118 29/73/119 47/89/120 49/87/121
f 30/72/122 31/71/123 50/91/124 48/90/125
f 31/71/126 42/84/127 49/87/128 50/91/129
f 34/68/130 35/67/131 52/93/132 51/92/133
f 42/84/134 34/68/135 51/92/136 53/87/137
f 35/67/138 36/66/139 54/94/140 52/93/141
f 36/66/142 42/84/143 53/87/144 54/94/145
f 39/63/146 40/82/147 56/96/148 55/95/149
f 42/84/150 39/63/151 55/95/152 57/87/153
f 40/82/154 21/81/155 58/97/156 56/96/157
f 21/81/158 42/84/159 57/87/160 58/97/161
s 1
f 60/100/40 59/98/4 79/119/162 80/121/163
f 61/101/38 60/100/40 80/121/163 81/122/164
f 62/102/36 61/101/38 81/122/164 82/123/165
f 63/103/34 62/102/36 82/123/165 83/124/166
f 64/104/32 63/103/34 83/124/166 84/125/167
f 65/105/30 64/104/32 84/125/167 85/126/168
f 66/106/28 65/105/30 85/126/168 86/127/169
f 67/107/26 66/106/28 86/127/169 87/128/170
f 68/108/24 67/107/26 87/128/170 88/129/171
f 69/109/22 68/108/24 88/129/171 89/130/172
f 70/110/20 69/109/22 89/130/172 90/131/173
f 71/111/18 70/110/20 90/131/173 91/132/174
f 72/112/16 71/111/18 91/132/174 92/133/175
f 73/113/14 72/112/16 92/133/175 93/134/176
f 74/114/12 73/113/14 93/134/176 94/135/177
f 75/115/10 74/114/12 94/135/177 95/136/178
f 76/116/8 75/115/10 95/136/178 96/137/179
f 77/117/6 76/116/8 96/137/179 97/138/180
f 78/118/3 77/117/6 97/138/180 98/139/181
f 59/99/4 78/118/3 98/139/181 79/120/162
f 80/121/163 79/119/162 21/62/182 40/61/183
f 81/122/164 80/121/163 40/61/183 39/60/184
f 82/123/165 81/122/164 39/60/184 38/59/185
f 83/124/166 82/123/165 38/59/185 37/58/186
f 84/125/167 83/124/166 37/58/186 36/57/187
f 85/126/168 84/125/167 36/57/187 35/56/188
f 86/127/169 85/126/168 35/56/188 34/55/189
f 87/128/170 86/127/169 34/55/189 33/54/190
f 88/129/171 87/128/170 33/54/190 32/53/191
f 89/130/172 88/129/171 32/53/191 31/52/192
f 90/131/173 89/130/172 31/52/192 30/51/193
f 91/132/174 90/131/173 30/51/193 29/50/194
f 92/133/175 91/132/174 29/50/194 28/49/195
f 93/134/176 92/133/175 28/49/195 27/48/196
f 94/135/177 93/134/176 27/48/196 26/47/197
f 95/136/178 94/135/177 26/47/197 25/46/198
f 96/137/179 95/136/178 25/46/198 24/45/199
f 97/138/180 96/137/179 24/45/199 23/44/200
f 98/139/181 97/138/180 23/44/200 22/43/201
f 79/120/162 98/139/181 22/43/201 21/42/182
