# This file uses centimeters as units for non-parametric coordinates.

mtllib Sliding Door.mtl
g default
v -9.519377 -74.158177 59.501014
v 9.519377 -74.158177 59.501014
v -9.519377 74.158177 59.501014
v 9.519377 74.158177 59.501014
v -9.519377 74.158177 -59.501014
v 9.519377 74.158177 -59.501014
v -9.519377 -74.158177 -59.501014
v 9.519377 -74.158177 -59.501014
vt 0.222609 0.000024
vt 0.258218 0.000028
vt 0.222579 0.277432
vt 0.258188 0.277435
vt 0.222555 0.500010
vt 0.258164 0.500014
vt 0.222525 0.777418
vt 0.258134 0.777421
vt 0.222500 0.999996
vt 0.258110 1.000000
vt 0.480797 0.000052
vt 0.480767 0.277459
vt 0.000030 -0.000000
vt 0.000000 0.277407
vn 0.000000 0.000000 1.000000
vn 0.000000 0.000000 1.000000
vn 0.000000 0.000000 1.000000
vn 0.000000 0.000000 1.000000
vn 0.000000 1.000000 0.000000
vn 0.000000 1.000000 0.000000
vn 0.000000 1.000000 0.000000
vn 0.000000 1.000000 0.000000
vn 0.000000 0.000000 -1.000000
vn 0.000000 0.000000 -1.000000
vn 0.000000 0.000000 -1.000000
vn 0.000000 0.000000 -1.000000
vn 0.000000 -1.000000 0.000000
vn 0.000000 -1.000000 0.000000
vn 0.000000 -1.000000 0.000000
vn 0.000000 -1.000000 0.000000
vn 1.000000 0.000000 0.000000
vn 1.000000 0.000000 0.000000
vn 1.000000 0.000000 0.000000
vn 1.000000 0.000000 0.000000
vn -1.000000 0.000000 0.000000
vn -1.000000 0.000000 0.000000
vn -1.000000 0.000000 0.000000
vn -1.000000 0.000000 0.000000
s off
g pCube3
usemtl initialShadingGroup
f 1/1/1 2/2/2 4/4/3 3/3/4
f 3/3/5 4/4/6 6/6/7 5/5/8
f 5/5/9 6/6/10 8/8/11 7/7/12
f 7/7/13 8/8/14 2/10/15 1/9/16
f 2/2/17 8/11/18 6/12/19 4/4/20
f 7/13/21 1/1/22 3/3/23 5/14/24
